<?xml version="1.0" encoding="iso-8859-1"?>
<!-- Generator: Adobe Illustrator 16.0.0, SVG Export Plug-In . SVG Version: 6.00 Build 0)  -->
<!DOCTYPE svg PUBLIC "-//W3C//DTD SVG 1.1//EN" "http://www.w3.org/Graphics/SVG/1.1/DTD/svg11.dtd">
<svg version="1.1" id="Layer_1" xmlns="http://www.w3.org/2000/svg" xmlns:xlink="http://www.w3.org/1999/xlink" x="0px" y="0px"
	 width="800px" height="600px" viewBox="0 0 800 600" style="enable-background:new 0 0 800 600;" xml:space="preserve">
<rect x="0" y="0" style="fill:#A24689;" width="800" height="600"/>
<g>
	<path style="fill:#FFFFFF;" d="M166.205,250.931c10.126,0,19.689,2.016,28.684,6.046c8.991,4.03,16.897,9.458,23.721,16.278
		c6.821,6.822,12.248,14.782,16.279,23.876c4.03,9.101,6.046,18.813,6.046,29.147c0,10.34-1.967,20.001-5.892,28.993
		c-3.93,8.992-9.254,16.899-15.97,23.721c-6.72,6.821-14.627,12.199-23.721,16.124c-9.1,3.931-18.915,5.893-29.458,5.893
		c-10.339,0-20.053-1.86-29.147-5.581c-9.099-3.722-17.054-8.939-23.876-15.659c-6.82-6.716-12.199-14.622-16.124-23.722
		c-3.929-9.095-5.892-19.018-5.892-29.769c0-10.334,1.909-20,5.736-28.992c3.822-8.992,9.146-16.846,15.97-23.564
		c6.821-6.717,14.83-12.095,24.031-16.124C145.788,253.566,155.662,251.347,166.205,250.931z M165.895,281.628
		c-5.998,0-11.734,1.14-17.209,3.411c-5.479,2.277-10.232,5.427-14.265,9.458c-4.03,4.03-7.237,8.735-9.611,14.108
		c-2.379,5.378-3.566,11.27-3.566,17.674c0,5.998,1.188,11.735,3.566,17.21c2.374,5.479,5.581,10.286,9.611,14.419
		c4.031,4.138,8.784,7.394,14.265,9.768c5.475,2.379,11.211,3.565,17.209,3.565c5.993,0,11.729-1.188,17.21-3.565
		c5.475-2.374,10.231-5.63,14.264-9.768c4.031-4.133,7.233-8.938,9.612-14.419c2.374-5.475,3.564-11.212,3.564-17.21
		c-0.619-12.193-4.961-22.479-13.021-30.853c-8.063-8.372-18.504-12.971-31.318-13.8L165.895,281.628L165.895,281.628z"/>
	<path style="fill:#FFFFFF;" d="M382.019,203.179c3.513-0.204,6.821,1.19,9.923,4.186c3.101,2.999,4.65,6.255,4.65,9.768V325.97
		c0,10.131-2.068,19.743-6.201,28.837c-4.139,9.1-9.719,17.055-16.744,23.876c-7.03,6.822-15.039,12.249-24.031,16.279
		s-18.45,6.047-28.372,6.047c-10.131,0-19.743-1.962-28.838-5.893c-9.099-3.925-17.054-9.303-23.876-16.124
		c-6.821-6.82-12.248-14.776-16.279-23.876c-4.03-9.094-6.046-18.809-6.046-29.146c0-11.163,1.808-20.979,5.427-29.458
		c3.613-8.475,9.04-16.435,16.278-23.876v0.311c7.646-7.233,16.071-12.714,25.271-16.435c9.195-3.722,18.652-5.581,28.372-5.581
		c5.784,0,12.659,0.93,20.62,2.791c7.955,1.859,15.862,5.479,23.722,10.853v-45.892c0-2.064,0.411-4.031,1.24-5.893
		c0.822-1.859,1.908-3.565,3.256-5.115c1.342-1.552,2.944-2.738,4.806-3.566c1.86-0.823,3.722-1.134,5.582-0.93H382.019z
		 M365.895,325.97c0-5.581-1.192-11.058-3.566-16.436c-2.379-5.373-5.635-10.179-9.768-14.418
		c-4.139-4.235-8.892-7.598-14.265-10.078c-5.378-2.479-11.061-3.721-17.054-3.721c-5.998,0-11.733,1.191-17.21,3.564
		c-5.479,2.38-10.231,5.582-14.264,9.613c-4.03,4.03-7.238,8.788-9.612,14.264c-2.379,5.479-3.564,11.217-3.564,17.21
		c0,6.201,1.187,11.991,3.564,17.364c2.374,5.378,5.582,10.077,9.612,14.107c4.031,4.031,8.784,7.238,14.264,9.612
		c5.477,2.379,11.212,3.565,17.21,3.565c5.993,0,11.676-1.188,17.054-3.565c5.373-2.374,10.127-5.581,14.265-9.612
		c4.133-4.03,7.389-8.729,9.768-14.107C364.702,337.962,365.895,332.172,365.895,325.97z"/>
	<path style="fill:#FFFFFF;" d="M480.623,250.931c10.127,0,19.689,2.016,28.684,6.046c8.992,4.03,16.898,9.458,23.721,16.278
		c6.821,6.822,12.248,14.782,16.279,23.876c4.031,9.101,6.046,18.813,6.046,29.147c0,10.34-1.967,20.001-5.892,28.993
		c-3.93,8.992-9.254,16.899-15.97,23.721c-6.72,6.821-14.627,12.199-23.721,16.124c-9.099,3.931-18.915,5.893-29.458,5.893
		c-10.339,0-20.053-1.86-29.146-5.581c-9.1-3.722-17.055-8.939-23.877-15.659c-6.82-6.716-12.198-14.622-16.124-23.722
		c-3.929-9.095-5.892-19.018-5.892-29.769c0-10.334,1.909-20,5.736-28.992c3.822-8.992,9.146-16.846,15.97-23.564
		c6.821-6.717,14.83-12.095,24.031-16.124C460.207,253.566,470.08,251.347,480.623,250.931z M480.313,281.628
		c-5.998,0-11.733,1.14-17.209,3.411c-5.479,2.277-10.231,5.427-14.264,9.458c-4.031,4.03-7.238,8.735-9.612,14.108
		c-2.379,5.378-3.566,11.27-3.566,17.674c0,5.998,1.188,11.735,3.566,17.21c2.374,5.479,5.581,10.286,9.612,14.419
		c4.03,4.138,8.784,7.394,14.264,9.768c5.476,2.379,11.211,3.565,17.209,3.565c5.993,0,11.729-1.188,17.21-3.565
		c5.475-2.374,10.232-5.63,14.264-9.768c4.031-4.133,7.233-8.938,9.612-14.419c2.374-5.475,3.565-11.212,3.565-17.21
		c-0.62-12.193-4.961-22.479-13.022-30.853c-8.063-8.372-18.504-12.971-31.317-13.8L480.313,281.628L480.313,281.628z"/>
	<path style="fill:#FFFFFF;" d="M638.142,250.931c10.126,0,19.689,2.016,28.683,6.046c8.992,4.03,16.898,9.458,23.722,16.278
		c6.82,6.822,12.248,14.782,16.278,23.876c4.031,9.101,6.046,18.813,6.046,29.147c0,10.34-1.967,20.001-5.891,28.993
		c-3.93,8.992-9.254,16.899-15.97,23.721c-6.72,6.821-14.627,12.199-23.722,16.124c-9.099,3.931-18.914,5.893-29.457,5.893
		c-10.34,0-20.054-1.86-29.147-5.581c-9.099-3.722-17.054-8.939-23.876-15.659c-6.821-6.716-12.199-14.622-16.124-23.722
		c-3.929-9.095-5.892-19.018-5.892-29.769c0-10.334,1.908-20,5.735-28.992c3.823-8.992,9.147-16.846,15.97-23.564
		c6.821-6.717,14.83-12.095,24.031-16.124C617.725,253.566,627.599,251.347,638.142,250.931z M637.832,281.628
		c-5.998,0-11.734,1.14-17.209,3.411c-5.479,2.277-10.232,5.427-14.265,9.458c-4.03,4.03-7.237,8.735-9.612,14.108
		c-2.379,5.378-3.565,11.27-3.565,17.674c0,5.998,1.188,11.735,3.565,17.21c2.375,5.479,5.582,10.286,9.612,14.419
		c4.031,4.138,8.784,7.394,14.265,9.768c5.475,2.379,11.211,3.565,17.209,3.565c5.992,0,11.729-1.188,17.209-3.565
		c5.476-2.374,10.232-5.63,14.265-9.768c4.03-4.133,7.233-8.938,9.612-14.419c2.373-5.475,3.564-11.212,3.564-17.21
		c-0.62-12.193-4.961-22.479-13.023-30.853c-8.062-8.372-18.502-12.971-31.316-13.8L637.832,281.628L637.832,281.628z"/>
</g>
</svg>
